<svg id="Layer_1" data-name="Layer 1" xmlns="http://www.w3.org/2000/svg" viewBox="0 0 512 199"><rect x="170.37" y="8" width="178.27" height="184" style="fill:#21625d"/><path d="M66.29,130.76c3.52-7.46,12.22-10.57,19.48-10.57,12.53,0,22.37,9.12,22.37,25.8,0,15.95-9.53,27-27.35,27-24.14,0-25.38-20.83-25.38-43.72,0-11.51.41-21.45,1.24-27.15.83-5.28,2.8-7.25,5.91-7.25,4.76,0,5,4.45,5,9.63C67.53,112.73,67,122.26,66.29,130.76Zm1.34,16.57c0,10.47,5.6,16.06,14.3,16.06,7.15,0,15.75-3.83,15.75-16.58,0-11.39-6.94-16.37-14.82-16.37S67.63,135.52,67.63,147.33Z" style="fill:#21625d"/><path d="M128.66,150.23c1.24,8.4,6.84,12.75,17.61,12.75,7.88,0,12-2.39,14.92-2.39,2,0,4.15,1,4.15,3.84,0,6.94-12.85,8.6-19.79,8.6-16.16,0-28-9-28-26.63,0-17.2,11.29-26.73,26.31-26.73,11.71,0,22.69,5.91,22.69,18.44,0,11.09-8.6,15.13-21.65,15.13A41.88,41.88,0,0,1,128.66,150.23Zm-.1-8.18a35.41,35.41,0,0,0,15.54,3.11c8.08,0,12-1.66,12-6.94,0-4.87-3.32-9-11.92-9C136.64,129.2,130,132.41,128.56,142.05Z" style="fill:#21625d"/><path d="M197.25,99.47c8.91,0,13.78,0,21.86.41,6.53.42,6.94,2.18,6.94,4.87,0,2.49-1.24,4.25-6.83,4.56-6.84.31-12.33.52-26.63.52-2.49,0-3.32,2-3.32,4.56,0,4.14.21,8,.31,16.16,10.36,0,14.41.21,18.65.52,5.6.31,6.84,2.07,6.84,4.55,0,2.7-.41,4.46-6.94,5-4.46.31-7.25.31-18.55.31-.1,8.18.11,16.89-.41,26-.31,5.39-1.76,5.81-5,5.81-3,0-4.56-.73-4.77-5.7-.41-8.91-.52-20.62-.52-42.9C178.91,100.92,181.4,99.47,197.25,99.47Z" style="fill:#fff"/><path d="M263.22,165.67c-3.42,4.25-8.7,7.56-17.1,7.56-10.77,0-23.62-5.59-23.62-25.79,0-15.75,7.77-28.6,23.73-28.6,7,0,12.53,2.38,16.89,8.19,0-3.22.2-7.36,5-7.36,2.07,0,4.14,1,4.45,6.63.42,7.25.62,12.74.62,18.86,0,7.56-.1,13.47-.62,20.61-.41,6.32-2.07,6.95-4.14,6.95C264.05,172.72,263.43,169.5,263.22,165.67Zm-16.47-36.78c-10.05,0-13.89,7.46-13.89,17.41,0,12,5.7,17.82,14.82,17.82,10.67,0,15.12-8,15.12-17.72C262.8,132,253.17,128.89,246.75,128.89Z" style="fill:#fff"/><path d="M298.58,106.1c0,3.31-3.32,6.11-6.74,6.11a6.44,6.44,0,0,1-6-6.32,6.37,6.37,0,0,1,6.32-6.11A6.73,6.73,0,0,1,298.58,106.1ZM287,146.3c0-19.59,0-27.77,5.08-27.77,2.38,0,4.35,1,4.66,6.63.42,7.25.62,14.19.62,21s-.31,12.44-.62,19.58c-.31,6.53-2,6.95-4.66,6.95-2.49,0-4.25-1.25-4.56-6.84C287.18,160.8,287,154.17,287,146.3Z" style="fill:#fff"/><path d="M310.44,144.64c0-9.74,0-15,.62-19.58.72-5.6,2.17-6.74,4.45-6.74,3.22,0,5.6.73,5.6,6.43a17,17,0,0,1,.21,2.79c3.73-4.66,8.49-8.49,14.5-8.49,4.25,0,6.11,1.86,6.11,5.07,0,5.08-4.45,6.12-10.15,7.15-4.35.83-8.81,3.22-10.15,6.63.1,5.18.2,3.94.2,8.09,0,7-.31,12.74-.62,19.89-.31,6.52-2.59,6.94-4.87,6.94-3.83,0-4.66-1.24-5.28-6.84C310.54,161.11,310.44,154.38,310.44,144.64Z" style="fill:#fff"/><polygon points="411.26 187.8 362.78 161.42 362.78 126.93 411.26 155.42 411.26 187.8" style="fill:#3aa59b"/><path d="M452.54,159.47,411.26,187.8V155.42s37.24-23.78,42.9-27.52l2.43-1.62v28.33C456.59,156.29,454,158.6,452.54,159.47Z" style="fill:#21625d"/><path d="M444.71,121.78c-1-1.57-5.13-3-6.71-2l-24.94,15.79a3.06,3.06,0,0,1-3.18.05l-13.61-8,15.61-9.46a3.53,3.53,0,0,0,1.52-4.65,3.29,3.29,0,0,0-4.49-1.55l-19.45,11.63-11.35-6.7a1.66,1.66,0,0,1,0-2.82L399,100.77c1.6-1,2.22-4.22,1.28-5.82a3.35,3.35,0,0,0-4.59-1.19l-31.17,18.36a4.23,4.23,0,0,0-.07,6.63l44.24,26.14a3.29,3.29,0,0,0,4.19.56l30.75-19A3.36,3.36,0,0,0,444.71,121.78Z" style="fill:#21625d"/></svg>